<?xml version='1.0' encoding='utf-8'?>
<!DOCTYPE svg PUBLIC '-//W3C//DTD SVG 1.1//EN' 'http://www.w3.org/Graphics/SVG/1.1/DTD/svg11.dtd'>
<!-- Uploaded to: SVG Repo, www.svgrepo.com, Generator: SVG Repo Mixer Tools -->
<svg fill="#000000" height="800px" width="800px" version="1.1" xmlns="http://www.w3.org/2000/svg" viewBox="0 0 512 512" xmlns:xlink="http://www.w3.org/1999/xlink" enable-background="new 0 0 512 512">
  <g>
    <g>
      <path d="m385.9,107.8h-97.5l24.4-50.4 74.6-5.6c11.1-0.8 19.5-10.6 18.6-21.9-0.8-11.2-10.5-19.7-21.6-18.9l-86.2,6.5c-7.1,0.5-13.5,4.9-16.6,11.4l-38.1,78.9h-117.3c-17.5,0-20.7,17.2-20,23l44.2,352.4c1.3,10.2 9.9,17.9 20,17.9h171.3c10.2,0 18.7-7.6 20-17.9l44.2-352.4c0.7-5.8 0.2-23-20-23zm-197.8,352.4l-16.2-129.5h168.3l-16.2,129.5h-135.9zm157.2-170.4h-178.5l-17.7-141.2h213.9l-17.7,141.2z"/>
    </g>
  </g>
</svg>